<?xml version="1.0" encoding="utf-8"?>
<!-- Generator: Adobe Illustrator 27.2.0, SVG Export Plug-In . SVG Version: 6.00 Build 0)  -->
<svg version="1.1" id="Capa_1" xmlns="http://www.w3.org/2000/svg" xmlns:xlink="http://www.w3.org/1999/xlink" x="0px" y="0px"
	 viewBox="0 0 1920 1080" style="enable-background:new 0 0 1920 1080;" xml:space="preserve">
<style type="text/css">
	.st0{fill-rule:evenodd;clip-rule:evenodd;fill:#FF671D;}
	.st1{fill-rule:evenodd;clip-rule:evenodd;fill:#2D2A26;}
	.st2{fill:#2D2A26;}
	.st3{fill-rule:evenodd;clip-rule:evenodd;fill:#1D1D1B;}
	.st4{fill:#1D1D1B;}
	.st5{fill:#FF671D;}
</style>
<g>
	<path class="st0" d="M514.97,511.19c-89.63,29.03-130.88,106.46-140.8,127.92l-15.32-25.06c11.47-25.39,63.55-122.65,196.88-149.14
		L537.6,568.8c89.63-29.02,130.88-106.46,140.8-127.91l15.33,25.05c-11.49,25.39-63.57,122.64-196.89,149.14L514.97,511.19z
		 M720.14,509.14c-8.17,19.35-42.73,90.5-125.5,136.56l-16.16-26.25c84.57-39.83,118.65-117.2,125.9-136.08L720.14,509.14z
		 M745.36,550.37c-6.82,16.84-40.35,90.27-123.61,139.44l-16.29-26.52c85.52-43.49,118.38-124.04,123.89-139.08L745.36,550.37z
		 M444.57,772.9c227.21,0,300.96-188.21,308.64-209.7l16.4,26.78c-9.86,25.81-90.42,213.98-343.31,213.98
		c-232.09,0-343.48-224.74-343.48-224.74h53.08C135.9,579.22,236.58,772.9,444.57,772.9z M332.42,570.85
		c8.17-19.35,42.74-90.5,125.51-136.56l16.16,26.25c-84.57,39.84-118.66,117.2-125.9,136.07L332.42,570.85z M307.2,529.63
		c6.82-16.84,40.37-90.27,123.61-139.44l16.3,26.52c-85.53,43.5-118.39,124.04-123.91,139.08L307.2,529.63z M608,307.1
		c-227.21,0-300.96,188.22-308.65,209.69l-16.39-26.78c9.87-25.81,90.42-213.98,343.31-213.98c232.08,0,343.48,224.73,343.48,224.73
		h-53.07C916.68,500.77,815.99,307.1,608,307.1z"/>
	<path class="st3" d="M1119.53,772.43V646.54c0-24.69-5.02-43.75-15.09-57.18c-9.83-13.42-24.46-20.14-43.89-20.14
		c-15.34,0-27.92,3.71-37.75,11.14c-9.83,7.2-17.02,17.03-21.58,29.5c-2.17-13.66-7.8-23.86-16.92-30.57
		c-9.11-6.72-19.79-10.07-32-10.07c-14.39,0-26.5,3.11-36.32,9.35c-9.6,5.99-17.16,15.82-22.65,29.49v-34.53h-20.51v198.89h22.66
		V660.58c0-21.83,4.43-39.32,13.3-52.52c8.87-13.19,21.34-19.78,37.42-19.78c12.21,0,21.69,5.15,28.41,15.46
		c6.95,10.31,10.43,24.22,10.43,41.72v126.96h22.65V660.58c0-21.83,4.45-39.32,13.32-52.52c8.87-13.19,21.33-19.78,37.4-19.78
		c12.24,0,21.71,5.15,28.42,15.46c6.7,10.31,10.06,24.22,10.06,41.72v126.96H1119.53z"/>
	<path class="st3" d="M1185.36,678.56l0.37-18.7h86.32c-0.48-22.31-4.7-39.69-12.6-52.16c-7.91-12.71-19.06-19.06-33.45-19.06
		c-17.25,0-31.16,7.8-41.73,23.38c-8.15,12.46-13.06,28.42-14.73,47.84v19.42c1.2,23.74,6.59,42.2,16.19,55.39
		c11.02,15.1,26.61,22.66,46.75,22.66c5.04,0,10.32-0.84,15.84-2.52c5.51-1.68,10.55-3.59,15.09-5.75
		c4.81-2.39,8.88-4.79,12.24-7.19c3.6-2.64,6-4.79,7.19-6.47l11.14,15.47c-2.38,2.4-6.11,5.15-11.14,8.28
		c-5.04,2.87-10.67,5.63-16.91,8.26c-6.24,2.64-12.7,4.8-19.42,6.47c-6.48,1.92-12.35,2.88-17.63,2.88
		c-27.57,0-48.44-8.87-62.57-26.61c-13.92-17.98-20.88-43.75-20.88-77.32c0-14.87,1.92-28.53,5.76-41
		c3.85-12.71,9.11-23.62,15.83-32.74c6.72-9.34,14.74-16.66,24.1-21.93c9.34-5.28,19.54-7.91,30.56-7.91
		c25.19,0,44.25,8.87,57.2,26.61c13.18,17.75,19.17,42.57,17.99,74.45l-0.37,8.99L1185.36,678.56z"/>
	<path class="st3" d="M1456.92,742.21v30.21h22.66V502.68h-22.66V605.9c-4.32-7.43-8.88-13.54-13.68-18.34
		c-4.54-4.8-9.35-8.51-14.39-11.15c-5.03-2.88-10.31-4.8-15.81-5.76c-5.29-0.95-10.55-1.43-15.84-1.43
		c-12.22,0-23.02,2.39-32.36,7.19c-9.12,4.79-16.91,11.63-23.38,20.49c-6.24,8.87-11.04,19.79-14.4,32.74
		c-3.11,12.7-4.67,27.09-4.67,43.16c0,16.06,1.67,30.57,5.04,43.52c3.58,12.71,8.63,23.61,15.11,32.73
		c6.72,8.87,14.86,15.7,24.45,20.5c9.6,4.8,20.5,7.19,32.73,7.19c10.78,0,21.22-2.39,31.3-7.19
		C1441.09,764.76,1449.73,755.65,1456.92,742.21z M1456.56,672.8c0,12.22-1.32,23.62-3.96,34.16c-2.64,10.31-6.36,19.18-11.15,26.62
		c-4.54,7.43-10.31,13.3-17.26,17.62c-6.72,4.08-14.15,6.11-22.3,6.11c-17.99,0-31.66-7.55-41-22.66
		c-9.11-15.1-13.68-35.73-13.68-61.86c0-26.14,4.45-46.64,13.32-61.51c8.88-15.1,21.95-22.66,39.2-22.66
		c8.39,0,16.07,2.04,23.02,6.11c6.96,3.84,12.94,9.47,17.99,16.9c5.03,7.43,8.87,16.31,11.5,26.62
		C1455.12,648.59,1456.56,660.08,1456.56,672.8z"/>
	<path class="st3" d="M1545.75,678.56l0.36-18.7h86.32c-0.48-22.31-4.68-39.69-12.58-52.16c-7.91-12.71-19.08-19.06-33.45-19.06
		c-17.26,0-31.18,7.8-41.73,23.38c-8.15,12.46-13.07,28.42-14.74,47.84v19.42c1.2,23.74,6.6,42.2,16.19,55.39
		c11.03,15.1,26.61,22.66,46.76,22.66c5.03,0,10.31-0.84,15.83-2.52c5.52-1.68,10.55-3.59,15.1-5.75c4.8-2.39,8.87-4.79,12.24-7.19
		c3.59-2.64,5.98-4.79,7.18-6.47l11.16,15.47c-2.41,2.4-6.12,5.15-11.16,8.28c-5.03,2.87-10.67,5.63-16.91,8.26
		c-6.22,2.64-12.71,4.8-19.42,6.47c-6.47,1.92-12.35,2.88-17.62,2.88c-27.57,0-48.44-8.87-62.58-26.61
		c-13.91-17.98-20.87-43.75-20.87-77.32c0-14.87,1.92-28.53,5.75-41c3.85-12.71,9.12-23.62,15.84-32.74
		c6.7-9.34,14.74-16.66,24.1-21.93c9.34-5.28,19.54-7.91,30.56-7.91c25.19,0,44.23,8.87,57.19,26.61
		c13.19,17.75,19.18,42.57,17.99,74.45l-0.37,8.99L1545.75,678.56z"/>
	<rect x="1812.63" y="573.54" class="st3" width="22.29" height="198.89"/>
	<path class="st4" d="M1810.35,516.1c0-7.41,6-13.42,13.42-13.42c7.41,0,13.41,6.01,13.41,13.42c0,7.41-6,13.42-13.41,13.42
		C1816.34,529.52,1810.35,523.51,1810.35,516.1z"/>
	<polygon class="st3" points="1220.53,552.86 1242.96,510.96 1266.54,510.94 1238.2,552.86 	"/>
	<path class="st3" d="M1712.97,772.43v-98.18c0-12.23,0.94-23.26,2.86-33.1c2.17-10.07,5.16-18.58,8.99-25.53
		c3.84-7.19,8.52-12.72,14.04-16.56c5.75-4.08,11.49-6.19,19.43-6.11c6.7,0.08,16.53,4.68,16.53,4.68l11.5-22.3
		c0,0-15.54-6.54-25.9-6.11c-11.78,0.48-19.52,3.48-28.41,10.42c-8.88,6.72-15.94,17.62-21.22,32.73v-38.84h-20.49v198.89H1712.97z"
		/>
</g>
</svg>
