<?xml version="1.0" encoding="utf-8"?>
<!-- Generator: Adobe Illustrator 27.2.0, SVG Export Plug-In . SVG Version: 6.00 Build 0)  -->
<svg version="1.1" id="Capa_1" xmlns="http://www.w3.org/2000/svg" xmlns:xlink="http://www.w3.org/1999/xlink" x="0px" y="0px"
	 viewBox="0 0 1168 1080" style="enable-background:new 0 0 1168 1080;" xml:space="preserve">
<style type="text/css">
	.st0{fill-rule:evenodd;clip-rule:evenodd;fill:#FF671D;}
	.st1{fill-rule:evenodd;clip-rule:evenodd;fill:#2D2A26;}
	.st2{fill:#2D2A26;}
	.st3{fill-rule:evenodd;clip-rule:evenodd;fill:#1D1D1B;}
	.st4{fill:#1D1D1B;}
	.st5{fill:#FF671D;}
</style>
<g>
	<path class="st0" d="M571.21,507.43C469.86,540.25,423.22,627.81,412,652.07l-17.32-28.33c12.97-28.71,71.86-138.68,222.61-168.64
		l-20.5,117.47C698.15,539.75,744.79,452.19,756,427.93l17.33,28.33c-12.99,28.71-71.88,138.68-222.63,168.64L571.21,507.43z
		 M803.2,505.11c-9.24,21.88-48.31,102.33-141.9,154.41l-18.27-29.68c95.62-45.04,134.16-132.52,142.36-153.87L803.2,505.11z
		 M831.72,551.72c-7.71,19.04-45.63,102.07-139.77,157.67l-18.41-29.99c96.69-49.18,133.86-140.25,140.09-157.26L831.72,551.72z
		 M491.61,803.35c256.91,0,340.31-212.82,348.99-237.12l18.54,30.28c-11.15,29.19-102.24,241.96-388.19,241.96
		c-262.44,0-388.38-254.12-388.38-254.12h60.02C142.58,584.35,256.42,803.35,491.61,803.35z M364.79,574.88
		c9.24-21.88,48.33-102.33,141.92-154.41l18.27,29.68c-95.62,45.05-134.17,132.52-142.36,153.86L364.79,574.88z M336.27,528.27
		c7.71-19.04,45.64-102.07,139.77-157.67l18.43,29.98c-96.71,49.18-133.86,140.26-140.1,157.26L336.27,528.27z M676.39,276.65
		c-256.91,0-340.31,212.82-349,237.11l-18.53-30.28c11.16-29.18,102.24-241.95,388.19-241.95c262.42,0,388.38,254.11,388.38,254.11
		h-60C1025.43,495.64,911.58,276.65,676.39,276.65z"/>
</g>
</svg>
